<?xml version="1.0" encoding="utf-8"?>
<!-- Generator: Adobe Illustrator 24.0.2, SVG Export Plug-In . SVG Version: 6.00 Build 0)  -->
<svg version="1.1" id="Calque_1" xmlns="http://www.w3.org/2000/svg" xmlns:xlink="http://www.w3.org/1999/xlink" x="0px" y="0px"
	 viewBox="0 0 841.89 595.28" style="enable-background:new 0 0 841.89 595.28;" xml:space="preserve">
<style type="text/css">
	.st0{fill:#29ABE2;stroke:#00B3EC;stroke-miterlimit:10;}
	.st1{fill:#FFFFFF;}
	.st2{fill:#3FA9F5;}
	.st3{font-family:'Arial-BoldMT';}
	.st4{font-size:32.7495px;}
</style>
<circle class="st0" cx="422.86" cy="255.08" r="70.05"/>
<g>
	<path class="st1" d="M382.4,233.43c-1.09,0.65-2,1.33-2.84,2.08c-9.28,8.36-12.82,18.6-10.59,30.5
		c1.81,9.67,7.24,17.17,16.08,22.36c0.61,0.36,0.89,0.26,1.26-0.26c0.65-0.91,1.4-1.77,2.07-2.66c1.74-2.33,3.56-4.57,6.56-5.63
		c-0.13-0.13-0.17-0.23-0.24-0.25c-7.94-2.68-12.55-8.13-13.85-15.89c-1.32-7.9,1.23-14.63,7.97-19.69
		c0.91-0.69,1.91-1.25,2.95-1.76c0.42-0.2,0.64-0.14,0.88,0.27c0.69,1.2,1.48,2.36,2.16,3.57c0.27,0.47,0.48,0.48,0.93,0.23
		c1.46-0.82,2.96-1.57,4.41-2.4c0.58-0.33,0.85-0.31,1.21,0.3c1.34,2.26,2.77,4.48,4.13,6.73c0.29,0.49,0.49,0.59,1.04,0.28
		c3.98-2.28,7.97-4.53,11.98-6.75c0.63-0.35,0.72-0.6,0.35-1.22c-5.6-9.33-11.16-18.68-16.75-28.03c-0.26-0.44-0.38-0.7,0.01-1.23
		c0.53-0.71-0.28-1.32-0.67-1.87c-0.39-0.55-0.98-0.39-1.51-0.1c-2.8,1.53-5.61,3.06-8.41,4.6c-1.41,0.78-2.81,1.57-4.21,2.38
		c-1.15,0.66-1.32,1.14-0.5,2.16c0.58,0.72,0.35,0.98-0.35,1.35c-1.34,0.72-2.62,1.54-3.95,2.27c-0.51,0.28-0.54,0.53-0.24,0.98
		c0.51,0.75,0.99,1.53,1.41,2.32c0.29,0.56,0.45,0.52,0.87,0.08c3.2-3.34,8.67-3.42,11.92-0.21c2.5,2.48,3.07,6.29,1.37,9.21
		c-1.81,3.12-5.41,4.7-9,3.97c-3.56-0.72-6.11-3.53-6.43-7.07C382.43,233.89,382.42,233.74,382.4,233.43z"/>
	<path class="st1" d="M407.94,305.39c-3.45,0-6.9,0-10.36,0c-7.16-0.01-14.31-0.03-21.47-0.01c-0.72,0-0.89-0.19-0.86-0.86
		c0.18-3.78,2.62-6.97,6.35-8.19c0.45-0.15,0.73-0.4,1-0.75c2.3-3.02,4.6-6.04,6.93-9.05c1.02-1.32,2.03-2.66,3.37-3.73
		c4.48-3.58,10.87-2.87,12.96,3.1c0.1,0.28,0.22,0.56,0.32,0.84c1.03,2.79,2.08,5.57,3.07,8.37c0.24,0.69,0.54,0.97,1.36,0.96
		c6.87-0.04,13.75,0.05,20.62-0.05c5.69-0.08,8.95,4.03,9.38,8.33c0.08,0.82-0.16,1.04-1.04,1.04
		C429.03,305.37,418.49,305.38,407.94,305.39C407.94,305.38,407.94,305.39,407.94,305.39z M401.83,286.48
		c0.02-1.49-1.3-2.78-2.83-2.79c-1.57-0.01-2.87,1.21-2.9,2.72c-0.03,1.5,1.24,2.74,2.83,2.77
		C400.51,289.21,401.81,288,401.83,286.48z"/>
	<path class="st1" d="M404.83,275.45c-1.07,1.55-2.31,2.71-3.78,3.87c3.4,0.97,5.41,3.18,6.41,6.24c0.12-0.01,0.22,0.01,0.23-0.02
		c0.55-1.26,1.6-1.5,2.89-1.34c0.56,0.07,1.13,0.02,1.69,0.02c0.29,0,0.62,0,0.61,0.38c-0.03,0.83,0.57,0.78,1.15,0.78
		c5.21,0,10.42,0.01,15.63,0.01c0.82,0,1.63,0.01,2.45-0.02c0.97-0.03,1.36-0.41,1.42-1.32c0.01-0.09,0.01-0.18,0.01-0.27
		c0.03-2.06-0.07-2.16-2.26-2.16c-5.62,0-11.23,0-16.85,0.02c-0.58,0-1.09,0.03-1.69,0.37c-0.61,0.35-1.62,0.08-2.64,0.08
		c0.29-0.47,0.52-0.83,0.76-1.19c1.06-1.59,2.15-3.16,3.17-4.77c0.34-0.53,0.7-0.71,1.34-0.71c8.5,0.03,17.01,0.01,25.51,0.06
		c0.96,0.01,1.21-0.25,1.1-1.17c-0.09-0.83-0.09-1.67,0-2.5c0.08-0.81-0.12-1.06-0.96-1.05c-4.39,0.04-8.79,0.02-13.18,0.02
		c-9.95,0-19.9,0.01-29.84-0.02c-0.83,0-1.11,0.18-1.03,0.99c0.08,0.93,0.09,1.86,0.01,2.79c-0.06,0.72,0.14,0.95,0.88,0.93
		C400.11,275.42,402.36,275.45,404.83,275.45z"/>
	<path class="st1" d="M391.14,202.47c-0.14,0.08-0.3,0.17-0.46,0.26c-2.55,1.39-5.1,2.8-7.67,4.17c-0.52,0.28-0.64,0.48-0.31,1.02
		c1.65,2.64,3.26,5.3,4.86,7.97c0.29,0.49,0.49,0.52,0.98,0.24c2.53-1.44,5.08-2.83,7.63-4.23c0.38-0.21,0.67-0.32,0.35-0.85
		c-1.67-2.7-3.28-5.42-4.92-8.14C391.5,202.73,391.45,202.49,391.14,202.47z"/>
	<path class="st1" d="M404.08,254.8c0.07,0.43,0.36,0.72,0.58,1.05c1.36,2.06,1.37,2.07,3.57,0.83c6.31-3.56,12.62-7.15,18.94-10.69
		c0.71-0.4,0.87-0.73,0.34-1.37c-0.43-0.51-0.79-1.08-1.1-1.67c-0.34-0.63-0.72-0.69-1.34-0.33c-4.13,2.38-8.28,4.73-12.43,7.09
		c-2.61,1.49-5.23,2.97-7.84,4.45C404.5,254.33,404.16,254.45,404.08,254.8z"/>
	<path class="st1" d="M408.35,258.17c1.93,0.28,3.77-0.14,5.64-0.23c1.36-0.07,2.53-0.51,3.65-1.23c1.82-1.16,3.7-2.23,5.53-3.39
		c0.37-0.23,0.63-0.12,0.95-0.02c1.42,0.46,2.86,0.88,4.27,1.38c0.57,0.2,0.77,0.07,0.94-0.44c0.41-1.28,0.86-2.55,1.33-3.82
		c0.16-0.43,0.09-0.62-0.4-0.76c-1.05-0.29-2.09-0.64-3.12-0.98c-0.26-0.09-0.53-0.09-0.66-0.5c-0.13-0.44-0.49-0.01-0.68,0.1
		c-3.53,1.98-7.06,3.99-10.58,5.99C412.92,255.57,410.64,256.87,408.35,258.17z"/>
	<path class="st1" d="M384.02,233.47c0.02-3.49,2.93-6.32,6.52-6.34c3.78-0.03,6.73,2.74,6.73,6.31c-0.01,3.43-2.99,6.29-6.58,6.31
		C386.99,239.75,384,236.95,384.02,233.47z M395.6,233.26c-0.05-2.56-2.31-4.65-4.98-4.62c-2.72,0.03-4.94,2.2-4.9,4.79
		c0.04,2.67,2.21,4.72,4.96,4.69C393.44,238.09,395.65,235.9,395.6,233.26z"/>
	<path class="st1" d="M379.21,204.54c0.04,1.42,1.26,2.09,2.54,1.39c2.96-1.62,5.92-3.24,8.87-4.87c0.99-0.54,1.06-0.89,0.43-1.97
		c-0.56-0.95-1.03-1.11-1.97-0.6c-3.04,1.67-6.07,3.35-9.11,5.02C379.55,203.74,379.18,204,379.21,204.54z"/>
	<path class="st1" d="M417.54,257.91c0.33,0.49,0.65,0.96,0.96,1.44c0.96,1.44,0.96,1.44,2.49,0.5c0.94-0.58,1.88-1.17,2.84-1.73
		c0.41-0.24,0.5-0.43,0.19-0.83c-0.48-0.62-0.91-1.28-1.34-1.94c-0.19-0.3-0.33-0.42-0.72-0.18c-1.31,0.8-2.66,1.56-3.98,2.34
		C417.8,257.61,417.54,257.65,417.54,257.91z"/>
	<path class="st1" d="M414.74,258.77c-1.34,0.13-2.67,0.28-4.01,0.38c-0.52,0.04-0.67,0.21-0.63,0.72c0.21,2.72,0.19,2.72,2.97,2.33
		c0.71-0.1,1.42-0.19,2.14-0.24c0.52-0.04,0.81-0.15,0.64-0.76c-0.16-0.6-0.23-1.23-0.27-1.85
		C415.55,258.77,415.28,258.61,414.74,258.77z"/>
	<path class="st1" d="M430.73,255.09c0.41-0.05,0.78-0.19,0.92-0.62c0.32-0.94,0.62-1.88,0.95-2.81c0.1-0.29,0.04-0.53-0.14-0.75
		c-0.16-0.18-0.31-0.42-0.58-0.42c-0.33,0-0.33,0.33-0.4,0.53c-0.42,1.15-0.81,2.32-1.24,3.47
		C430.08,254.96,430.13,255.2,430.73,255.09z"/>
	<path class="st1" d="M424.73,259.33c-0.04-0.45-0.21-0.6-0.7-0.28c-1,0.66-2.03,1.27-3.04,1.92c-0.2,0.13-0.64,0.2-0.48,0.54
		c0.14,0.3,0.55,0.53,0.87,0.39c1.17-0.5,2.25-1.15,3.21-1.95C424.76,259.81,424.78,259.58,424.73,259.33z"/>
	<path class="st1" d="M412.01,264.26c1.03-0.12,1.93-0.23,2.83-0.33c0.29-0.03,0.56-0.11,0.7-0.37c0.11-0.21,0.28-0.43,0.15-0.67
		c-0.13-0.23-0.39-0.1-0.6-0.08c-1.11,0.12-2.23,0.25-3.34,0.4c-0.27,0.04-0.74-0.11-0.71,0.33c0.02,0.34,0.29,0.65,0.73,0.71
		C411.9,264.28,412.03,264.26,412.01,264.26z"/>
</g>
<text transform="matrix(0.7647 0 0 1 272.0498 362.1338)"><tspan x="0" y="0" class="st2 st3 st4">ANGELA DIAGNOSTICS</tspan><tspan x="20.9" y="35" class="st2 st3 st4"> ET  SERVICES SARL</tspan></text>
<rect x="442.12" y="253.12" class="st1" width="42.52" height="8.5"/>
<rect x="459.37" y="237.74" class="st1" width="7.63" height="40.26"/>
</svg>
